<svg width="209" height="57" viewBox="0 0 209 57" fill="none" xmlns="http://www.w3.org/2000/svg">
<path d="M14.7111 28.6011H7.44612L6.03299 34H0.398576L8.64185 7.62153H13.5153L21.813 34H16.1242L14.7111 28.6011ZM8.60561 24.1624H13.5335L11.0695 14.7597L8.60561 24.1624ZM29.6214 29.5794H38.9698V34H24.295V7.62153H29.6214V29.5794ZM47.3762 24.7241V34H42.0497V7.62153H51.0358C53.6447 7.62153 55.7221 8.43076 57.2681 10.0492C58.8262 11.6677 59.6052 13.7693 59.6052 16.354C59.6052 18.9387 58.8382 20.9799 57.3043 22.4775C55.7704 23.9752 53.6447 24.7241 50.9271 24.7241H47.3762ZM47.3762 20.2854H51.0358C52.0504 20.2854 52.8354 19.9532 53.391 19.2889C53.9466 18.6246 54.2244 17.6584 54.2244 16.3902C54.2244 15.0737 53.9406 14.0289 53.3729 13.2559C52.8052 12.4709 52.0443 12.0723 51.0902 12.0602H47.3762V20.2854ZM81.6718 34H76.3635V22.7131H68.5007V34H63.1742V7.62153H68.5007V18.2925H76.3635V7.62153H81.6718V34ZM98.883 28.6011H91.6181L90.2049 34H84.5705L92.8138 7.62153H97.6873L105.985 34H100.296L98.883 28.6011ZM92.7776 24.1624H97.7054L95.2415 14.7597L92.7776 24.1624ZM122.779 25.6843L123.124 28.6373L123.649 26.0285L127.87 7.62153H130.642L134.737 26.0285L135.262 28.7098L135.643 25.6661L138.867 7.62153H142.183L136.929 34H133.94L129.537 14.7778L129.265 13.2197L128.994 14.7778L124.428 34H121.421L116.185 7.62153H119.5L122.779 25.6843ZM157.51 27.1155H148.596L146.549 34H143.143L151.64 7.62153H154.484L162.999 34H159.593L157.51 27.1155ZM149.466 24.253H156.658L153.053 12.2595L149.466 24.253ZM172.529 28.9091L178.562 7.62153H182.203L173.996 34H171.098L162.909 7.62153H166.532L172.529 28.9091ZM198.436 21.8072H189.106V31.1556H199.976V34H185.791V7.62153H199.795V10.484H189.106V18.9628H198.436V21.8072Z" fill="white"/>
<path d="M203.569 56.0943L209 50.2358L2.00002 56.0943H203.569Z" fill="white"/>
</svg>
