<svg width="461" height="302" viewBox="0 0 461 302" fill="none" xmlns="http://www.w3.org/2000/svg">
<g filter="url(#filter0_b_25_221)">
<rect width="460.663" height="302" rx="21.0542" fill="url(#paint0_linear_25_221)"/>
</g>
<g filter="url(#filter1_d_25_221)">
<rect x="27.0596" y="20.3254" width="345.272" height="229.881" rx="13.5224" fill="white"/>
<path d="M49.2085 52.5205C48.3819 52.5205 47.6793 52.3736 47.1007 52.0797C46.5313 51.7858 46.0399 51.4001 45.6266 50.9225L46.8527 49.7377C47.1834 50.1235 47.5507 50.4174 47.9548 50.6194C48.3681 50.8215 48.8227 50.9225 49.3187 50.9225C49.8789 50.9225 50.3014 50.8031 50.5861 50.5643C50.8708 50.3163 51.0132 49.9857 51.0132 49.5724C51.0132 49.251 50.9213 48.9892 50.7376 48.7872C50.554 48.5851 50.2096 48.4382 49.7044 48.3463L48.7952 48.2086C46.8757 47.9055 45.9159 46.9733 45.9159 45.412C45.9159 44.9803 45.994 44.59 46.1501 44.241C46.3154 43.892 46.5496 43.5935 46.8527 43.3455C47.1558 43.0975 47.5186 42.9093 47.9411 42.7807C48.3727 42.6429 48.8595 42.574 49.4013 42.574C50.1269 42.574 50.7606 42.6934 51.3025 42.9322C51.8443 43.171 52.3081 43.5246 52.6939 43.993L51.454 45.164C51.2152 44.8701 50.9259 44.6313 50.5861 44.4476C50.2463 44.2639 49.8192 44.1721 49.3049 44.1721C48.7814 44.1721 48.3865 44.2731 48.1201 44.4752C47.863 44.668 47.7344 44.9436 47.7344 45.3017C47.7344 45.6691 47.84 45.9401 48.0513 46.1146C48.2625 46.2891 48.6023 46.4176 49.0707 46.5003L49.9662 46.6656C50.9397 46.8401 51.6561 47.1524 52.1153 47.6024C52.5837 48.0432 52.8179 48.6632 52.8179 49.4622C52.8179 49.9214 52.7352 50.3393 52.5699 50.7158C52.4138 51.0832 52.1796 51.4047 51.8673 51.6802C51.5642 51.9465 51.1877 52.1532 50.7376 52.3001C50.2968 52.4471 49.7871 52.5205 49.2085 52.5205ZM56.7224 52.3552C56.1162 52.3552 55.6524 52.1991 55.331 51.8868C55.0187 51.5654 54.8626 51.1108 54.8626 50.523V46.5692H53.8018V45.164H54.3529C54.6192 45.164 54.7983 45.1043 54.8901 44.9849C54.9912 44.8563 55.0417 44.668 55.0417 44.4201V43.194H56.6259V45.164H58.1V46.5692H56.6259V50.95H57.9898V52.3552H56.7224ZM59.6295 52.3552V45.164H61.3929V46.6518H61.4618C61.5077 46.459 61.5766 46.2753 61.6684 46.1008C61.7694 45.9171 61.898 45.7564 62.0541 45.6186C62.2103 45.4808 62.394 45.3706 62.6052 45.288C62.8256 45.2053 63.0782 45.164 63.3629 45.164H63.7486V46.8309H63.1976C62.6006 46.8309 62.1506 46.9182 61.8475 47.0927C61.5444 47.2672 61.3929 47.5519 61.3929 47.9468V52.3552H59.6295ZM70.1799 52.3552C69.7942 52.3552 69.4865 52.245 69.2569 52.0246C69.0365 51.795 68.8987 51.4919 68.8436 51.1154H68.7609C68.6416 51.5838 68.3982 51.9373 68.0308 52.1761C67.6634 52.4057 67.2088 52.5205 66.6669 52.5205C65.9322 52.5205 65.3674 52.3277 64.9725 51.9419C64.5775 51.5562 64.3801 51.0419 64.3801 50.399C64.3801 49.6551 64.6464 49.104 65.1791 48.7458C65.7118 48.3785 66.4695 48.1948 67.4522 48.1948H68.6783V47.6713C68.6783 47.2672 68.5727 46.9549 68.3614 46.7345C68.1502 46.5141 67.8104 46.4039 67.342 46.4039C66.9287 46.4039 66.5935 46.4957 66.3363 46.6794C66.0883 46.8539 65.8771 47.0651 65.7026 47.3131L64.6556 46.3763C64.9219 45.963 65.2755 45.6324 65.7164 45.3844C66.1572 45.1272 66.7404 44.9987 67.466 44.9987C68.4395 44.9987 69.1788 45.2191 69.684 45.6599C70.1891 46.1008 70.4417 46.7345 70.4417 47.5611V50.95H71.158V52.3552H70.1799ZM67.2593 51.2393C67.6542 51.2393 67.9895 51.1521 68.265 50.9776C68.5405 50.8031 68.6783 50.5459 68.6783 50.2061V49.2556H67.5486C66.6302 49.2556 66.171 49.5494 66.171 50.1372V50.3714C66.171 50.6653 66.2628 50.8858 66.4465 51.0327C66.6394 51.1705 66.9103 51.2393 67.2593 51.2393ZM74.7769 52.3552C74.1707 52.3552 73.7069 52.1991 73.3855 51.8868C73.0732 51.5654 72.9171 51.1108 72.9171 50.523V46.5692H71.8563V45.164H72.4074C72.6737 45.164 72.8528 45.1043 72.9446 44.9849C73.0457 44.8563 73.0962 44.668 73.0962 44.4201V43.194H74.6805V45.164H76.1545V46.5692H74.6805V50.95H76.0443V52.3552H74.7769ZM80.537 52.5205C80.0043 52.5205 79.5267 52.4333 79.1043 52.2588C78.691 52.0751 78.3374 51.8225 78.0435 51.5011C77.7588 51.1705 77.5384 50.7755 77.3822 50.3163C77.2261 49.8479 77.148 49.3244 77.148 48.7458C77.148 48.1764 77.2215 47.6621 77.3685 47.2029C77.5246 46.7437 77.745 46.3533 78.0297 46.0319C78.3144 45.7013 78.6634 45.4487 79.0767 45.2742C79.49 45.0905 79.9584 44.9987 80.4819 44.9987C81.0421 44.9987 81.5289 45.0951 81.9422 45.288C82.3555 45.4808 82.6953 45.7426 82.9616 46.0732C83.228 46.4039 83.4254 46.7896 83.554 47.2304C83.6918 47.6621 83.7607 48.1259 83.7607 48.6218V49.2004H78.9803V49.3795C78.9803 49.903 79.1272 50.3255 79.4211 50.647C79.715 50.9592 80.1513 51.1154 80.7299 51.1154C81.1707 51.1154 81.5289 51.0235 81.8044 50.8398C82.0891 50.6561 82.3417 50.4219 82.5621 50.1372L83.5127 51.198C83.2188 51.6113 82.8147 51.9373 82.3004 52.1761C81.7952 52.4057 81.2075 52.5205 80.537 52.5205ZM80.5095 46.3212C80.0411 46.3212 79.6691 46.4773 79.3936 46.7896C79.118 47.1019 78.9803 47.506 78.9803 48.0019V48.1121H81.9284V47.9881C81.9284 47.4922 81.8044 47.0927 81.5565 46.7896C81.3177 46.4773 80.9687 46.3212 80.5095 46.3212ZM91.8008 52.9614C91.8008 53.3379 91.7319 53.6686 91.5941 53.9533C91.4655 54.2472 91.2497 54.4906 90.9466 54.6834C90.6436 54.8763 90.2532 55.0232 89.7756 55.1243C89.2981 55.2253 88.7149 55.2758 88.0261 55.2758C87.4199 55.2758 86.9056 55.2345 86.4831 55.1518C86.0606 55.0783 85.7116 54.9681 85.4361 54.8212C85.1698 54.6834 84.9769 54.5089 84.8575 54.2977C84.7381 54.0864 84.6784 53.8477 84.6784 53.5813C84.6784 53.1772 84.7886 52.8604 85.009 52.6308C85.2386 52.4103 85.5555 52.268 85.9596 52.2037V52.0521C85.6657 51.9787 85.4361 51.8363 85.2708 51.6251C85.1147 51.4047 85.0366 51.1475 85.0366 50.8536C85.0366 50.6699 85.0733 50.5092 85.1468 50.3714C85.2203 50.2245 85.3167 50.1005 85.4361 49.9995C85.5647 49.8984 85.707 49.8158 85.8632 49.7515C86.0193 49.678 86.1846 49.6229 86.3591 49.5862V49.5311C85.9183 49.329 85.5876 49.0489 85.3672 48.6907C85.156 48.3325 85.0504 47.9147 85.0504 47.4371C85.0504 46.7023 85.3029 46.1146 85.8081 45.6737C86.3132 45.2237 87.0525 44.9987 88.0261 44.9987C88.2465 44.9987 88.4623 45.0124 88.6735 45.04C88.894 45.0676 89.096 45.1135 89.2797 45.1778V44.9436C89.2797 44.2456 89.6195 43.8966 90.2991 43.8966H91.415V45.2466H89.8859V45.4395C90.2624 45.6507 90.5425 45.9263 90.7262 46.2661C90.9099 46.6059 91.0017 46.9962 91.0017 47.4371C91.0017 48.1626 90.7492 48.7458 90.244 49.1867C89.7481 49.6275 89.0088 49.8479 88.0261 49.8479C87.6036 49.8479 87.2362 49.8066 86.9239 49.7239C86.7862 49.7882 86.6668 49.8755 86.5658 49.9857C86.4647 50.0867 86.4142 50.2153 86.4142 50.3714C86.4142 50.7296 86.7265 50.9087 87.351 50.9087H89.2797C90.1614 50.9087 90.7997 51.0924 91.1946 51.4598C91.5987 51.8179 91.8008 52.3185 91.8008 52.9614ZM90.1476 53.168C90.1476 52.9384 90.0558 52.7593 89.8721 52.6308C89.6884 52.5022 89.3715 52.4379 88.9215 52.4379H86.4693C86.2214 52.6216 86.0974 52.8695 86.0974 53.1818C86.0974 53.4573 86.2122 53.6732 86.4418 53.8293C86.6714 53.9854 87.0617 54.0635 87.6128 54.0635H88.4944C89.0731 54.0635 89.4909 53.99 89.7481 53.8431C90.0144 53.6961 90.1476 53.4711 90.1476 53.168ZM88.0261 48.6494C88.8894 48.6494 89.321 48.282 89.321 47.5473V47.3131C89.321 46.5784 88.8894 46.211 88.0261 46.211C87.1627 46.211 86.7311 46.5784 86.7311 47.3131V47.5473C86.7311 48.282 87.1627 48.6494 88.0261 48.6494ZM97.2948 45.164H98.948L96.055 53.6364C95.9631 53.8936 95.8575 54.114 95.7381 54.2977C95.6279 54.4906 95.4947 54.6467 95.3386 54.7661C95.1825 54.8855 94.9942 54.9727 94.7738 55.0278C94.5533 55.0829 94.2962 55.1105 94.0023 55.1105H92.9415V53.7053H94.2365L94.5671 52.6996L91.9909 45.164H93.7405L94.9942 48.9662L95.4626 50.7847H95.5452L96.0412 48.9662L97.2948 45.164ZM103.477 42.7394H107.927C108.322 42.7394 108.675 42.7991 108.987 42.9184C109.309 43.0378 109.58 43.2032 109.8 43.4144C110.021 43.6256 110.186 43.8874 110.296 44.1996C110.416 44.5027 110.475 44.8379 110.475 45.2053C110.475 45.5727 110.425 45.8849 110.324 46.1421C110.232 46.3901 110.103 46.5967 109.938 46.762C109.782 46.9274 109.598 47.0513 109.387 47.134C109.185 47.2167 108.974 47.2626 108.753 47.2718V47.3544C108.964 47.3544 109.189 47.3957 109.428 47.4784C109.676 47.5611 109.901 47.6942 110.103 47.8779C110.314 48.0524 110.489 48.282 110.627 48.5667C110.765 48.8423 110.833 49.1867 110.833 49.6C110.833 49.9857 110.769 50.3485 110.641 50.6883C110.521 51.0189 110.351 51.3082 110.131 51.5562C109.91 51.8042 109.649 52.0016 109.346 52.1486C109.042 52.2863 108.712 52.3552 108.354 52.3552H103.477V42.7394ZM105.295 50.8123H107.83C108.179 50.8123 108.45 50.725 108.643 50.5505C108.836 50.3668 108.932 50.1051 108.932 49.7653V49.2969C108.932 48.9571 108.836 48.6953 108.643 48.5116C108.45 48.3279 108.179 48.2361 107.83 48.2361H105.295V50.8123ZM105.295 46.7483H107.541C107.871 46.7483 108.129 46.661 108.312 46.4865C108.496 46.3028 108.588 46.0503 108.588 45.7288V45.3017C108.588 44.9803 108.496 44.7323 108.312 44.5578C108.129 44.3741 107.871 44.2823 107.541 44.2823H105.295V46.7483ZM115.353 52.5205C114.839 52.5205 114.375 52.4333 113.962 52.2588C113.558 52.0843 113.209 51.8317 112.915 51.5011C112.63 51.1705 112.41 50.7755 112.254 50.3163C112.097 49.8479 112.019 49.3244 112.019 48.7458C112.019 48.1672 112.097 47.6483 112.254 47.1891C112.41 46.7299 112.63 46.3396 112.915 46.0181C113.209 45.6875 113.558 45.4349 113.962 45.2604C114.375 45.0859 114.839 44.9987 115.353 44.9987C115.868 44.9987 116.331 45.0859 116.745 45.2604C117.158 45.4349 117.507 45.6875 117.792 46.0181C118.086 46.3396 118.311 46.7299 118.467 47.1891C118.623 47.6483 118.701 48.1672 118.701 48.7458C118.701 49.3244 118.623 49.8479 118.467 50.3163C118.311 50.7755 118.086 51.1705 117.792 51.5011C117.507 51.8317 117.158 52.0843 116.745 52.2588C116.331 52.4333 115.868 52.5205 115.353 52.5205ZM115.353 51.1016C115.822 51.1016 116.189 50.9592 116.455 50.6745C116.722 50.3898 116.855 49.9719 116.855 49.4209V48.0846C116.855 47.5427 116.722 47.1294 116.455 46.8447C116.189 46.56 115.822 46.4176 115.353 46.4176C114.894 46.4176 114.531 46.56 114.265 46.8447C113.999 47.1294 113.865 47.5427 113.865 48.0846V49.4209C113.865 49.9719 113.999 50.3898 114.265 50.6745C114.531 50.9592 114.894 51.1016 115.353 51.1016ZM122.456 52.3552C121.85 52.3552 121.386 52.1991 121.064 51.8868C120.752 51.5654 120.596 51.1108 120.596 50.523V46.5692H119.535V45.164H120.086C120.353 45.164 120.532 45.1043 120.624 44.9849C120.725 44.8563 120.775 44.668 120.775 44.4201V43.194H122.359V45.164H123.834V46.5692H122.359V50.95H123.723V52.3552H122.456ZM127.719 52.5205C127.03 52.5205 126.451 52.4057 125.983 52.1761C125.515 51.9373 125.101 51.6113 124.743 51.198L125.818 50.151C126.084 50.4541 126.373 50.6929 126.686 50.8674C127.007 51.0419 127.374 51.1291 127.788 51.1291C128.21 51.1291 128.513 51.0557 128.697 50.9087C128.89 50.7618 128.986 50.5597 128.986 50.3026C128.986 50.0913 128.917 49.926 128.78 49.8066C128.651 49.678 128.426 49.5908 128.104 49.5449L127.388 49.4484C126.607 49.3474 126.01 49.127 125.597 48.7872C125.193 48.4382 124.991 47.933 124.991 47.2718C124.991 46.9228 125.055 46.6105 125.184 46.335C125.312 46.0503 125.496 45.8115 125.735 45.6186C125.974 45.4166 126.258 45.265 126.589 45.164C126.929 45.0538 127.305 44.9987 127.719 44.9987C128.068 44.9987 128.375 45.0262 128.642 45.0813C128.917 45.1272 129.165 45.2007 129.386 45.3017C129.606 45.3936 129.808 45.513 129.992 45.6599C130.176 45.7977 130.355 45.9538 130.529 46.1283L129.496 47.1616C129.285 46.9411 129.032 46.7574 128.738 46.6105C128.444 46.4636 128.123 46.3901 127.774 46.3901C127.388 46.3901 127.108 46.459 126.933 46.5967C126.768 46.7345 126.686 46.9136 126.686 47.134C126.686 47.3728 126.754 47.5565 126.892 47.6851C127.039 47.8044 127.282 47.8917 127.622 47.9468L128.352 48.0432C129.905 48.2637 130.681 48.9708 130.681 50.1648C130.681 50.5138 130.607 50.8352 130.46 51.1291C130.322 51.4138 130.125 51.6618 129.868 51.8731C129.611 52.0751 129.298 52.2358 128.931 52.3552C128.573 52.4654 128.169 52.5205 127.719 52.5205Z" fill="#1E1E1E"/>
<rect x="45.7252" y="73.1197" width="141.164" height="89.4446" rx="12.8865" stroke="#22A347" stroke-opacity="0.2" stroke-width="1.27172"/>
<circle cx="116.058" cy="107.769" r="25.2418" fill="#F4F6FE" fill-opacity="0.4"/>
<path d="M100.328 118.213C99.9051 118.213 99.561 118.557 99.561 118.98C99.561 119.402 99.9051 119.746 100.328 119.746C100.751 119.746 101.095 119.402 101.095 118.98C101.095 118.557 100.751 118.213 100.328 118.213Z" fill="#C4FE61"/>
<path d="M110.441 118.42V118.42C110.29 118.316 110.104 118.452 110.104 118.635V118.676C110.104 118.844 110.252 118.995 110.403 118.922C110.513 118.87 110.568 118.784 110.568 118.664C110.567 118.56 110.525 118.479 110.441 118.42Z" fill="black"/>
<path d="M109.399 116.749C109.399 116.85 109.434 116.929 109.504 116.987V116.987C109.639 117.099 109.821 116.962 109.821 116.787V116.729C109.821 116.552 109.651 116.391 109.512 116.499C109.437 116.558 109.399 116.641 109.399 116.749Z" fill="black"/>
<path d="M131.771 100.957C131.771 100.534 131.427 100.19 131.004 100.19C130.581 100.19 130.237 100.534 130.237 100.957C130.237 101.38 130.581 101.724 131.004 101.724C131.427 101.724 131.771 101.38 131.771 100.957Z" fill="black"/>
<path d="M103.587 94.0554C104.116 94.0554 104.546 93.6254 104.546 93.0968C104.546 92.5682 104.116 92.1382 103.587 92.1382C103.059 92.1382 102.629 92.5682 102.629 93.0968C102.629 93.6254 103.059 94.0554 103.587 94.0554Z" fill="#C4FE61"/>
<path d="M127.295 96.6281C126.953 96.9701 127.158 97.5559 127.639 97.6093L128.325 97.6855C128.499 97.7049 128.673 97.644 128.797 97.5201V97.5201C129.139 97.1781 128.933 96.5924 128.452 96.539L127.766 96.4627C127.592 96.4434 127.419 96.5042 127.295 96.6281V96.6281Z" fill="black"/>
<path d="M129.064 93.7745C129.143 93.6961 129.181 93.5863 129.169 93.476L129.11 92.9413C129.076 92.637 128.705 92.5069 128.489 92.7234V92.7234C128.41 92.8018 128.372 92.9117 128.384 93.0219L128.443 93.5567C128.477 93.8609 128.848 93.991 129.064 93.7745V93.7745Z" fill="black"/>
<path d="M109.914 113.908C107.8 113.908 106.08 115.628 106.08 117.743C106.08 119.857 107.8 121.577 109.914 121.577C112.028 121.577 113.749 119.857 113.749 117.743C113.749 115.628 112.028 113.908 109.914 113.908ZM111.507 119.152C111.427 119.313 111.319 119.444 111.185 119.547C110.99 119.695 110.753 119.784 110.51 119.831C110.322 119.866 110.17 120.02 110.17 120.211V120.36C110.17 120.474 110.077 120.567 109.962 120.567V120.567C109.847 120.567 109.754 120.474 109.754 120.36V120.2C109.754 120.009 109.608 119.852 109.421 119.818C109.107 119.761 108.79 119.662 108.502 119.518C108.324 119.43 108.268 119.211 108.357 119.034L108.561 118.63C108.595 118.562 108.7 118.541 108.764 118.583V118.583C108.941 118.7 109.197 118.804 109.399 118.872V118.872C109.616 118.946 109.821 118.767 109.821 118.538V118.482C109.821 118.296 109.699 118.137 109.522 118.083C109.372 118.037 109.193 117.975 109.02 117.89C108.765 117.767 108.552 117.594 108.45 117.327C108.35 117.067 108.353 116.655 108.49 116.348C108.68 115.921 109.033 115.679 109.47 115.574C109.63 115.536 109.754 115.402 109.754 115.238V115.126C109.754 115.011 109.847 114.918 109.962 114.918V114.918C110.077 114.918 110.17 115.011 110.17 115.126V115.236C110.17 115.4 110.296 115.536 110.457 115.568C110.613 115.599 110.762 115.643 110.905 115.701C111.005 115.741 111.099 115.782 111.187 115.823C111.366 115.906 111.428 116.122 111.336 116.296V116.296C111.211 116.532 110.813 116.63 110.564 116.533C110.554 116.529 110.544 116.525 110.533 116.521C110.313 116.439 110.104 116.616 110.104 116.851V116.901C110.104 117.092 110.233 117.253 110.417 117.307C110.541 117.344 110.692 117.393 110.85 117.457C111.402 117.679 111.628 118.048 111.628 118.568C111.628 118.797 111.587 118.992 111.507 119.152Z" fill="black"/>
<path d="M109.914 111.991C106.742 111.991 104.162 114.571 104.162 117.742C104.162 120.914 106.742 123.494 109.914 123.494C113.085 123.494 115.666 120.914 115.666 117.742C115.666 114.571 113.085 111.991 109.914 111.991ZM109.914 122.344C107.377 122.344 105.312 120.28 105.312 117.742C105.312 115.205 107.377 113.141 109.914 113.141C112.451 113.141 114.515 115.205 114.515 117.742C114.515 120.28 112.451 122.344 109.914 122.344Z" fill="black"/>
<path d="M126.753 96.0858C126.877 95.9618 126.938 95.7883 126.918 95.6142L126.842 94.9283C126.789 94.4475 126.203 94.242 125.861 94.5841V94.5841C125.737 94.708 125.676 94.8815 125.695 95.0556L125.772 95.7416C125.825 96.2223 126.411 96.4278 126.753 96.0858V96.0858Z" fill="black"/>
<path d="M123.526 91.7546C123.844 91.7546 124.102 91.4971 124.102 91.1794C124.102 90.8618 123.844 90.6042 123.526 90.6042C123.209 90.6042 122.951 90.8618 122.951 91.1794C122.951 91.4971 123.209 91.7546 123.526 91.7546Z" fill="black"/>
<path d="M131.962 106.326C132.28 106.326 132.538 106.068 132.538 105.75C132.538 105.433 132.28 105.175 131.962 105.175C131.645 105.175 131.387 105.433 131.387 105.75C131.387 106.068 131.645 106.326 131.962 106.326Z" fill="#C4FE61"/>
<path d="M131.195 118.596C131.513 118.596 131.77 118.339 131.77 118.021C131.77 117.703 131.513 117.446 131.195 117.446C130.878 117.446 130.62 117.703 130.62 118.021C130.62 118.339 130.878 118.596 131.195 118.596Z" fill="black"/>
<path d="M126.594 122.814C126.912 122.814 127.169 122.556 127.169 122.239C127.169 121.921 126.912 121.664 126.594 121.664C126.277 121.664 126.019 121.921 126.019 122.239C126.019 122.556 126.277 122.814 126.594 122.814Z" fill="#C4FE61"/>
<path d="M103.97 124.731C104.288 124.731 104.546 124.474 104.546 124.156C104.546 123.838 104.288 123.581 103.97 123.581C103.653 123.581 103.395 123.838 103.395 124.156C103.395 124.474 103.653 124.731 103.97 124.731Z" fill="#C4FE61"/>
<path d="M108.188 92.5212C108.506 92.5212 108.764 92.2637 108.764 91.946C108.764 91.6284 108.506 91.3708 108.188 91.3708C107.871 91.3708 107.613 91.6284 107.613 91.946C107.613 92.2637 107.871 92.5212 108.188 92.5212Z" fill="#C4FE61"/>
<path d="M100.136 98.6567C100.454 98.6567 100.711 98.3992 100.711 98.0815C100.711 97.7639 100.454 97.5063 100.136 97.5063C99.8185 97.5063 99.561 97.7639 99.561 98.0815C99.561 98.3992 99.8185 98.6567 100.136 98.6567Z" fill="black"/>
<path d="M101.986 114.815C102.41 115.69 103.76 115.386 104.239 114.541V114.541C104.436 114.194 104.46 113.781 104.294 113.418C102.374 109.218 103.084 104.028 106.62 100.492C110.67 96.4424 116.89 96.0858 121.332 99.1882C121.916 99.5958 122.719 99.5775 123.223 99.0741V99.0741C123.77 98.5267 123.749 97.6263 123.125 97.1687C117.577 93.1019 109.745 93.572 104.722 98.5944C100.369 102.947 99.4196 109.509 101.986 114.815Z" fill="black"/>
<path d="M119.297 101.516C119.803 101.84 120.479 101.818 120.904 101.393V101.393C121.38 100.917 121.355 100.131 120.799 99.7513C116.623 96.8972 110.879 97.3186 107.163 101.035C104.269 103.929 103.314 108.215 104.562 112.004C104.78 112.665 105.623 112.793 106.193 112.395V112.395C106.619 112.098 106.824 111.55 106.675 111.053C105.795 108.117 106.575 104.876 108.79 102.662C111.648 99.8025 116.037 99.4264 119.297 101.516Z" fill="black"/>
<path d="M122.346 116.218C126.049 112.516 126.475 106.76 123.629 102.583C123.249 102.027 122.464 102.002 121.988 102.478V102.478C121.563 102.903 121.541 103.577 121.865 104.083C123.952 107.34 123.583 111.728 120.72 114.591C119.742 115.569 118.567 116.277 117.273 116.679C116.776 116.833 116.436 117.288 116.432 117.807V117.807C116.426 118.502 116.998 119.148 117.666 118.96C119.424 118.464 121.041 117.524 122.346 116.218Z" fill="black"/>
<path d="M120.177 114.049C122.709 111.518 123.065 107.732 121.427 104.843C121.084 104.238 120.266 104.199 119.774 104.692V104.692C119.359 105.106 119.327 105.757 119.582 106.284C120.551 108.284 120.208 110.764 118.55 112.422C118.03 112.942 117.414 113.344 116.744 113.61C116.1 113.867 115.714 114.692 115.971 115.335V115.335C116.148 115.778 116.604 116.085 117.058 115.943C118.23 115.576 119.292 114.934 120.177 114.049Z" fill="black"/>
<path d="M124.306 100.159C123.803 100.662 123.784 101.466 124.192 102.049C127.32 106.532 126.886 112.763 122.889 116.761C121.192 118.458 119.003 119.579 116.65 119.972C116.256 120.038 115.92 120.305 115.74 120.662V120.662C115.302 121.533 115.817 122.81 116.782 122.673C119.782 122.247 122.581 120.865 124.787 118.659C129.793 113.652 130.268 105.804 126.212 100.258C125.755 99.6326 124.854 99.6116 124.306 100.159V100.159Z" fill="black"/>
<path d="M117.098 103.797C117.625 104.053 118.276 104.021 118.69 103.606V103.606C119.182 103.115 119.144 102.298 118.539 101.955C115.651 100.317 111.864 100.671 109.332 103.204C107.323 105.213 106.612 108.15 107.404 110.814C107.539 111.271 108.03 111.484 108.495 111.38V111.38C109.171 111.229 109.658 110.447 109.512 109.77C109.135 108.034 109.632 106.157 110.959 104.83C112.632 103.157 115.109 102.83 117.098 103.797Z" fill="black"/>
<path d="M112.986 111.996C114.149 112.62 115.4 113.366 116.608 112.836C117.125 112.609 117.601 112.287 118.008 111.88C118.777 111.111 119.21 110.152 119.325 109.168C119.53 107.407 117.364 107.102 116.11 108.355V108.355C115.966 108.5 115.773 108.58 115.568 108.58C115.144 108.58 114.801 108.237 114.801 107.813C114.801 107.608 114.881 107.415 115.026 107.271V107.271C116.279 106.017 115.973 103.85 114.213 104.056C113.229 104.171 112.269 104.604 111.501 105.373C110.406 106.468 109.971 108 110.228 109.44C110.46 110.741 111.822 111.372 112.986 111.996V111.996Z" fill="black"/>
<path d="M115.297 107.542C115.147 107.691 115.147 107.934 115.297 108.084C115.447 108.234 115.689 108.234 115.839 108.084L129.607 94.3161C129.601 94.3222 129.595 94.3285 129.588 94.335C129.259 94.6642 129.339 94.8837 129.801 94.9351L130.359 94.9971C130.469 95.0094 130.579 94.9708 130.658 94.8924V94.8924C130.874 94.6759 130.744 94.3051 130.44 94.2713L129.819 94.2024C129.763 94.1962 129.707 94.2158 129.667 94.2557V94.2557C129.817 94.106 129.817 93.8633 129.667 93.7135C129.518 93.5639 129.275 93.5639 129.125 93.7135L115.297 107.542Z" fill="black"/>
<path d="M87.3889 148.42V141.348H90.57C90.8942 141.348 91.1846 141.402 91.4413 141.51C91.7047 141.612 91.9276 141.76 92.1099 141.956C92.2923 142.145 92.4307 142.375 92.5253 142.645C92.6198 142.915 92.6671 143.212 92.6671 143.537C92.6671 143.867 92.6198 144.168 92.5253 144.438C92.4307 144.702 92.2923 144.931 92.1099 145.127C91.9276 145.316 91.7047 145.465 91.4413 145.573C91.1846 145.674 90.8942 145.725 90.57 145.725H88.7261V148.42H87.3889ZM88.7261 144.57H90.4484C90.7051 144.57 90.9077 144.502 91.0563 144.367C91.2049 144.225 91.2792 144.026 91.2792 143.77V143.303C91.2792 143.047 91.2049 142.851 91.0563 142.716C90.9077 142.581 90.7051 142.513 90.4484 142.513H88.7261V144.57ZM93.6991 148.42V143.131H94.9958V144.225H95.0465C95.0803 144.084 95.1309 143.949 95.1985 143.82C95.2728 143.685 95.3673 143.567 95.4821 143.466C95.597 143.364 95.732 143.283 95.8874 143.222C96.0495 143.162 96.2352 143.131 96.4446 143.131H96.7283V144.357H96.323C95.884 144.357 95.5531 144.421 95.3302 144.55C95.1073 144.678 94.9958 144.887 94.9958 145.178V148.42H93.6991ZM99.724 148.541C99.3457 148.541 99.0047 148.477 98.7007 148.349C98.4035 148.22 98.1469 148.035 97.9308 147.792C97.7214 147.548 97.5593 147.258 97.4445 146.92C97.3297 146.576 97.2722 146.191 97.2722 145.765C97.2722 145.34 97.3297 144.958 97.4445 144.621C97.5593 144.283 97.7214 143.996 97.9308 143.759C98.1469 143.516 98.4035 143.331 98.7007 143.202C99.0047 143.074 99.3457 143.01 99.724 143.01C100.102 143.01 100.443 143.074 100.747 143.202C101.051 143.331 101.308 143.516 101.517 143.759C101.733 143.996 101.899 144.283 102.014 144.621C102.128 144.958 102.186 145.34 102.186 145.765C102.186 146.191 102.128 146.576 102.014 146.92C101.899 147.258 101.733 147.548 101.517 147.792C101.308 148.035 101.051 148.22 100.747 148.349C100.443 148.477 100.102 148.541 99.724 148.541ZM99.724 147.498C100.068 147.498 100.339 147.393 100.534 147.184C100.73 146.974 100.828 146.667 100.828 146.262V145.279C100.828 144.881 100.73 144.577 100.534 144.367C100.339 144.158 100.068 144.053 99.724 144.053C99.3863 144.053 99.1195 144.158 98.9236 144.367C98.7277 144.577 98.6298 144.881 98.6298 145.279V146.262C98.6298 146.667 98.7277 146.974 98.9236 147.184C99.1195 147.393 99.3863 147.498 99.724 147.498ZM103.539 144.155H102.759V143.131H103.539V142.371C103.539 141.905 103.661 141.547 103.904 141.298C104.154 141.048 104.519 140.923 104.998 140.923H105.92V141.956H104.836V143.131H108.098V148.42H106.802V144.155H104.836V148.42H103.539V144.155ZM107.45 142.361C107.18 142.361 106.984 142.301 106.862 142.179C106.748 142.057 106.69 141.902 106.69 141.713V141.51C106.69 141.321 106.748 141.166 106.862 141.044C106.984 140.923 107.18 140.862 107.45 140.862C107.713 140.862 107.906 140.923 108.028 141.044C108.149 141.166 108.21 141.321 108.21 141.51V141.713C108.21 141.902 108.149 142.057 108.028 142.179C107.906 142.301 107.713 142.361 107.45 142.361ZM111.249 148.42C110.804 148.42 110.463 148.305 110.226 148.075C109.997 147.839 109.882 147.505 109.882 147.072V144.165H109.102V143.131H109.507C109.703 143.131 109.834 143.087 109.902 143C109.976 142.905 110.013 142.767 110.013 142.584V141.683H111.179V143.131H112.263V144.165H111.179V147.386H112.182V148.42H111.249ZM118.639 142.534V148.42H117.301V142.534H115.295V141.348H120.644V142.534H118.639ZM124.836 148.42C124.553 148.42 124.326 148.339 124.158 148.177C123.995 148.008 123.894 147.785 123.854 147.508H123.793C123.705 147.852 123.526 148.112 123.256 148.288C122.986 148.457 122.651 148.541 122.253 148.541C121.713 148.541 121.297 148.399 121.007 148.116C120.716 147.832 120.571 147.454 120.571 146.981C120.571 146.434 120.767 146.029 121.159 145.765C121.551 145.495 122.108 145.36 122.83 145.36H123.732V144.975C123.732 144.678 123.654 144.448 123.499 144.286C123.344 144.124 123.094 144.043 122.749 144.043C122.445 144.043 122.199 144.111 122.01 144.246C121.827 144.374 121.672 144.529 121.544 144.712L120.774 144.023C120.97 143.719 121.23 143.476 121.554 143.293C121.878 143.104 122.307 143.01 122.841 143.01C123.556 143.01 124.1 143.172 124.472 143.496C124.843 143.82 125.029 144.286 125.029 144.894V147.386H125.556V148.42H124.836ZM122.689 147.599C122.979 147.599 123.226 147.535 123.428 147.407C123.631 147.278 123.732 147.089 123.732 146.839V146.14H122.901C122.226 146.14 121.888 146.356 121.888 146.789V146.961C121.888 147.177 121.956 147.339 122.091 147.447C122.233 147.548 122.432 147.599 122.689 147.599ZM126.605 148.42V143.131H127.902V144.225H127.953C127.986 144.084 128.037 143.949 128.105 143.82C128.179 143.685 128.273 143.567 128.388 143.466C128.503 143.364 128.638 143.283 128.793 143.222C128.956 143.162 129.141 143.131 129.351 143.131H129.634V144.357H129.229C128.79 144.357 128.459 144.421 128.236 144.55C128.013 144.678 127.902 144.887 127.902 145.178V148.42H126.605ZM135.186 148.865C135.186 149.142 135.135 149.386 135.034 149.595C134.939 149.811 134.781 149.99 134.558 150.132C134.335 150.274 134.048 150.382 133.697 150.456C133.345 150.53 132.917 150.567 132.41 150.567C131.964 150.567 131.586 150.537 131.275 150.476C130.965 150.422 130.708 150.341 130.505 150.233C130.31 150.132 130.168 150.003 130.08 149.848C129.992 149.693 129.948 149.517 129.948 149.321C129.948 149.024 130.029 148.791 130.191 148.622C130.36 148.46 130.593 148.356 130.89 148.308V148.197C130.674 148.143 130.505 148.038 130.384 147.883C130.269 147.721 130.212 147.532 130.212 147.315C130.212 147.18 130.239 147.062 130.293 146.961C130.347 146.853 130.418 146.762 130.505 146.687C130.6 146.613 130.705 146.552 130.819 146.505C130.934 146.451 131.056 146.41 131.184 146.383V146.343C130.86 146.194 130.617 145.988 130.455 145.725C130.299 145.461 130.222 145.154 130.222 144.803C130.222 144.263 130.407 143.83 130.779 143.506C131.15 143.175 131.694 143.01 132.41 143.01C132.572 143.01 132.731 143.02 132.886 143.04C133.048 143.06 133.197 143.094 133.332 143.141V142.969C133.332 142.456 133.582 142.199 134.082 142.199H134.902V143.192H133.778V143.334C134.055 143.489 134.261 143.692 134.396 143.942C134.531 144.192 134.598 144.479 134.598 144.803C134.598 145.336 134.413 145.765 134.041 146.09C133.676 146.414 133.133 146.576 132.41 146.576C132.099 146.576 131.829 146.545 131.6 146.485C131.498 146.532 131.41 146.596 131.336 146.677C131.262 146.751 131.225 146.846 131.225 146.961C131.225 147.224 131.454 147.356 131.914 147.356H133.332C133.98 147.356 134.45 147.491 134.74 147.761C135.037 148.025 135.186 148.393 135.186 148.865ZM133.97 149.017C133.97 148.849 133.903 148.717 133.768 148.622C133.633 148.528 133.4 148.48 133.069 148.48H131.265C131.083 148.616 130.992 148.798 130.992 149.028C130.992 149.23 131.076 149.389 131.245 149.504C131.414 149.619 131.701 149.676 132.106 149.676H132.754C133.18 149.676 133.487 149.622 133.676 149.514C133.872 149.406 133.97 149.24 133.97 149.017ZM132.41 145.694C133.045 145.694 133.362 145.424 133.362 144.884V144.712C133.362 144.171 133.045 143.901 132.41 143.901C131.775 143.901 131.458 144.171 131.458 144.712V144.884C131.458 145.424 131.775 145.694 132.41 145.694ZM138.013 148.541C137.621 148.541 137.27 148.477 136.96 148.349C136.656 148.214 136.396 148.028 136.179 147.792C135.97 147.548 135.808 147.258 135.693 146.92C135.578 146.576 135.521 146.191 135.521 145.765C135.521 145.347 135.575 144.968 135.683 144.631C135.798 144.293 135.96 144.006 136.169 143.77C136.379 143.526 136.635 143.341 136.939 143.212C137.243 143.077 137.588 143.01 137.973 143.01C138.385 143.01 138.743 143.081 139.047 143.222C139.35 143.364 139.6 143.557 139.796 143.8C139.992 144.043 140.137 144.327 140.232 144.651C140.333 144.968 140.384 145.309 140.384 145.674V146.1H136.868V146.231C136.868 146.616 136.976 146.927 137.193 147.163C137.409 147.393 137.729 147.508 138.155 147.508C138.479 147.508 138.743 147.44 138.945 147.305C139.155 147.17 139.34 146.998 139.502 146.789L140.201 147.569C139.985 147.873 139.688 148.112 139.31 148.288C138.938 148.457 138.506 148.541 138.013 148.541ZM137.993 143.982C137.648 143.982 137.375 144.097 137.172 144.327C136.97 144.556 136.868 144.854 136.868 145.218V145.299H139.036V145.208C139.036 144.843 138.945 144.55 138.763 144.327C138.587 144.097 138.331 143.982 137.993 143.982ZM143.176 148.42C142.73 148.42 142.389 148.305 142.153 148.075C141.923 147.839 141.808 147.505 141.808 147.072V144.165H141.028V143.131H141.434C141.629 143.131 141.761 143.087 141.829 143C141.903 142.905 141.94 142.767 141.94 142.584V141.683H143.105V143.131H144.189V144.165H143.105V147.386H144.108V148.42H143.176Z" fill="#9FA0A3"/>
<rect x="207.994" y="73.1197" width="141.164" height="89.4446" rx="12.8865" stroke="#22A347" stroke-opacity="0.2" stroke-width="1.27172"/>
<circle cx="279.016" cy="107.77" r="25.2418" fill="#F4F6FE" fill-opacity="0.4"/>
<path d="M270.53 103.673C272.68 101.744 275.424 100.606 278.308 100.448V93.3462C273.542 93.5137 268.997 95.3993 265.512 98.655L270.53 103.673Z" fill="black"/>
<path d="M279.017 108.203C278.036 108.203 277.077 108.494 276.262 109.039C275.447 109.584 274.811 110.358 274.436 111.264C274.06 112.17 273.962 113.167 274.154 114.129C274.345 115.091 274.817 115.974 275.511 116.668C276.204 117.361 277.087 117.833 278.049 118.024C279.011 118.216 280.008 118.118 280.914 117.742C281.82 117.367 282.594 116.732 283.139 115.916C283.684 115.101 283.975 114.142 283.975 113.162C283.973 111.847 283.45 110.587 282.521 109.657C281.591 108.728 280.331 108.205 279.017 108.203ZM276.183 112.453V111.745C276.183 111.557 276.258 111.377 276.391 111.244C276.524 111.111 276.704 111.037 276.892 111.037C277.079 111.037 277.26 111.111 277.392 111.244C277.525 111.377 277.6 111.557 277.6 111.745V112.453C277.6 112.641 277.525 112.821 277.392 112.954C277.26 113.087 277.079 113.162 276.892 113.162C276.704 113.162 276.524 113.087 276.391 112.954C276.258 112.821 276.183 112.641 276.183 112.453ZM281.128 115.759C280.862 116.056 280.537 116.294 280.173 116.456C279.809 116.619 279.415 116.703 279.017 116.703C278.618 116.703 278.224 116.619 277.86 116.456C277.496 116.294 277.171 116.056 276.905 115.759C276.842 115.69 276.793 115.609 276.762 115.521C276.73 115.433 276.716 115.339 276.721 115.246C276.726 115.152 276.749 115.061 276.789 114.976C276.83 114.892 276.886 114.816 276.956 114.754C277.026 114.691 277.107 114.644 277.195 114.613C277.284 114.582 277.377 114.569 277.471 114.575C277.564 114.58 277.655 114.604 277.74 114.645C277.824 114.686 277.899 114.744 277.96 114.814C278.097 114.956 278.261 115.07 278.442 115.147C278.624 115.225 278.819 115.264 279.017 115.264C279.214 115.264 279.409 115.225 279.591 115.147C279.772 115.07 279.936 114.956 280.073 114.814C280.134 114.744 280.209 114.686 280.294 114.645C280.378 114.604 280.469 114.58 280.562 114.575C280.656 114.569 280.749 114.582 280.838 114.613C280.926 114.644 281.007 114.691 281.077 114.754C281.147 114.816 281.204 114.892 281.244 114.976C281.284 115.061 281.307 115.152 281.312 115.246C281.317 115.339 281.303 115.433 281.271 115.521C281.24 115.609 281.191 115.69 281.128 115.759ZM281.85 112.453C281.85 112.641 281.775 112.821 281.642 112.954C281.51 113.087 281.329 113.162 281.141 113.162C280.954 113.162 280.773 113.087 280.641 112.954C280.508 112.821 280.433 112.641 280.433 112.453V111.745C280.433 111.557 280.508 111.377 280.641 111.244C280.773 111.111 280.954 111.037 281.141 111.037C281.329 111.037 281.51 111.111 281.642 111.244C281.775 111.377 281.85 111.557 281.85 111.745V112.453Z" fill="black"/>
<path d="M259.892 113.87H265.558C265.746 113.87 265.926 113.795 266.059 113.663C266.192 113.53 266.267 113.35 266.267 113.162C266.268 110.027 267.43 107.004 269.529 104.675L264.51 99.657C261.085 103.319 259.181 108.147 259.184 113.162C259.184 113.35 259.258 113.53 259.391 113.663C259.524 113.795 259.704 113.87 259.892 113.87Z" fill="black"/>
<path d="M290.893 100.283L292.522 98.6543C289.037 95.3987 284.491 93.5133 279.725 93.3462V100.439C282.009 100.562 284.216 101.306 286.109 102.591L289.796 100.421C289.96 100.325 290.142 100.264 290.33 100.24C290.519 100.217 290.71 100.231 290.893 100.283Z" fill="black"/>
<path d="M281.149 107.161C282.041 107.48 282.851 107.994 283.52 108.664C284.189 109.334 284.701 110.144 285.019 111.037L290.537 101.666L281.149 107.161Z" fill="#C4FE61"/>
<path d="M291.895 101.285C291.947 101.467 291.961 101.658 291.938 101.846C291.914 102.034 291.853 102.216 291.758 102.38L289.586 106.069C291.009 108.16 291.769 110.632 291.766 113.162C291.766 113.35 291.841 113.53 291.974 113.663C292.106 113.795 292.287 113.87 292.474 113.87H298.141C298.329 113.87 298.509 113.795 298.642 113.663C298.775 113.53 298.849 113.35 298.849 113.162C298.852 108.147 296.948 103.319 293.523 99.657L291.895 101.285Z" fill="black"/>
<path d="M248.686 143.345H248.646L248.099 144.47L246.65 147.144L245.201 144.47L244.654 143.345H244.613V148.421H243.347V141.349H244.857L246.67 144.804H246.711L248.504 141.349H249.953V148.421H248.686V143.345ZM255.427 148.421C255.144 148.421 254.917 148.34 254.749 148.178C254.587 148.009 254.485 147.786 254.445 147.509H254.384C254.296 147.854 254.117 148.114 253.847 148.289C253.577 148.458 253.242 148.542 252.844 148.542C252.304 148.542 251.888 148.401 251.598 148.117C251.307 147.833 251.162 147.455 251.162 146.982C251.162 146.435 251.358 146.03 251.75 145.767C252.142 145.496 252.699 145.361 253.421 145.361H254.323V144.976C254.323 144.679 254.245 144.45 254.09 144.287C253.935 144.125 253.685 144.044 253.34 144.044C253.037 144.044 252.79 144.112 252.601 144.247C252.419 144.375 252.263 144.531 252.135 144.713L251.365 144.024C251.561 143.72 251.821 143.477 252.145 143.295C252.469 143.105 252.898 143.011 253.432 143.011C254.148 143.011 254.691 143.173 255.063 143.497C255.434 143.821 255.62 144.287 255.62 144.895V147.388H256.147V148.421H255.427ZM253.28 147.6C253.57 147.6 253.817 147.536 254.019 147.408C254.222 147.279 254.323 147.09 254.323 146.84V146.141H253.492C252.817 146.141 252.479 146.358 252.479 146.79V146.962C252.479 147.178 252.547 147.34 252.682 147.448C252.824 147.55 253.023 147.6 253.28 147.6ZM256.639 148.421L258.442 145.736L256.68 143.132H258.159L259.253 144.885H259.293L260.377 143.132H261.755L259.962 145.756L261.765 148.421H260.286L259.172 146.597H259.131L258.017 148.421H256.639ZM265.182 141.349H267.756C268.215 141.349 268.63 141.424 269.002 141.572C269.38 141.721 269.701 141.944 269.964 142.241C270.234 142.531 270.44 142.899 270.582 143.345C270.731 143.784 270.805 144.298 270.805 144.885C270.805 145.473 270.731 145.989 270.582 146.435C270.44 146.874 270.234 147.242 269.964 147.539C269.701 147.83 269.38 148.049 269.002 148.198C268.63 148.347 268.215 148.421 267.756 148.421H265.182V141.349ZM267.756 147.236C268.255 147.236 268.65 147.09 268.941 146.8C269.238 146.503 269.387 146.05 269.387 145.442V144.328C269.387 143.72 269.238 143.271 268.941 142.981C268.65 142.683 268.255 142.535 267.756 142.535H266.52V147.236H267.756ZM272.086 148.421V143.132H273.383V144.227H273.434C273.467 144.085 273.518 143.95 273.586 143.821C273.66 143.686 273.754 143.568 273.869 143.467C273.984 143.366 274.119 143.284 274.274 143.224C274.437 143.163 274.622 143.132 274.832 143.132H275.115V144.358H274.71C274.271 144.358 273.94 144.423 273.717 144.551C273.494 144.679 273.383 144.889 273.383 145.179V148.421H272.086ZM279.845 148.421C279.561 148.421 279.335 148.34 279.166 148.178C279.004 148.009 278.903 147.786 278.862 147.509H278.801C278.714 147.854 278.535 148.114 278.264 148.289C277.994 148.458 277.66 148.542 277.261 148.542C276.721 148.542 276.306 148.401 276.015 148.117C275.725 147.833 275.58 147.455 275.58 146.982C275.58 146.435 275.776 146.03 276.167 145.767C276.559 145.496 277.116 145.361 277.839 145.361H278.741V144.976C278.741 144.679 278.663 144.45 278.508 144.287C278.352 144.125 278.102 144.044 277.758 144.044C277.454 144.044 277.207 144.112 277.018 144.247C276.836 144.375 276.681 144.531 276.552 144.713L275.782 144.024C275.978 143.72 276.238 143.477 276.562 143.295C276.887 143.105 277.315 143.011 277.849 143.011C278.565 143.011 279.109 143.173 279.48 143.497C279.852 143.821 280.037 144.287 280.037 144.895V147.388H280.564V148.421H279.845ZM277.697 147.6C277.987 147.6 278.234 147.536 278.437 147.408C278.639 147.279 278.741 147.09 278.741 146.84V146.141H277.91C277.234 146.141 276.897 146.358 276.897 146.79V146.962C276.897 147.178 276.964 147.34 277.099 147.448C277.241 147.55 277.44 147.6 277.697 147.6ZM281.048 143.132H282.294L282.831 145.311L283.246 147.124H283.286L283.773 145.311L284.391 143.132H285.566L286.204 145.311L286.701 147.124H286.741L287.157 145.311L287.683 143.132H288.889L287.44 148.421H286.042L285.363 146.091L284.968 144.652H284.938L284.553 146.091L283.884 148.421H282.506L281.048 143.132ZM293.058 147.539H293.008C292.913 147.843 292.734 148.087 292.471 148.269C292.207 148.451 291.9 148.542 291.549 148.542C290.88 148.542 290.367 148.303 290.009 147.823C289.658 147.344 289.482 146.658 289.482 145.767C289.482 144.882 289.658 144.203 290.009 143.73C290.367 143.251 290.88 143.011 291.549 143.011C291.9 143.011 292.207 143.102 292.471 143.284C292.734 143.46 292.913 143.7 293.008 144.004H293.058V140.924H294.355V148.421H293.058V147.539ZM291.964 147.469C292.275 147.469 292.535 147.394 292.744 147.246C292.954 147.097 293.058 146.884 293.058 146.607V144.926C293.058 144.669 292.954 144.463 292.744 144.308C292.535 144.152 292.275 144.075 291.964 144.075C291.626 144.075 291.353 144.189 291.144 144.419C290.941 144.642 290.84 144.943 290.84 145.321V146.233C290.84 146.611 290.941 146.911 291.144 147.134C291.353 147.357 291.626 147.469 291.964 147.469ZM297.948 148.542C297.569 148.542 297.228 148.478 296.924 148.35C296.627 148.222 296.371 148.036 296.154 147.793C295.945 147.55 295.783 147.259 295.668 146.922C295.553 146.577 295.496 146.192 295.496 145.767C295.496 145.341 295.553 144.959 295.668 144.622C295.783 144.284 295.945 143.997 296.154 143.761C296.371 143.517 296.627 143.332 296.924 143.203C297.228 143.075 297.569 143.011 297.948 143.011C298.326 143.011 298.667 143.075 298.971 143.203C299.275 143.332 299.531 143.517 299.741 143.761C299.957 143.997 300.122 144.284 300.237 144.622C300.352 144.959 300.41 145.341 300.41 145.767C300.41 146.192 300.352 146.577 300.237 146.922C300.122 147.259 299.957 147.55 299.741 147.793C299.531 148.036 299.275 148.222 298.971 148.35C298.667 148.478 298.326 148.542 297.948 148.542ZM297.948 147.499C298.292 147.499 298.562 147.394 298.758 147.185C298.954 146.976 299.052 146.668 299.052 146.263V145.28C299.052 144.882 298.954 144.578 298.758 144.368C298.562 144.159 298.292 144.054 297.948 144.054C297.61 144.054 297.343 144.159 297.147 144.368C296.951 144.578 296.854 144.882 296.854 145.28V146.263C296.854 146.668 296.951 146.976 297.147 147.185C297.343 147.394 297.61 147.499 297.948 147.499ZM300.953 143.132H302.2L302.736 145.311L303.152 147.124H303.192L303.679 145.311L304.297 143.132H305.472L306.11 145.311L306.607 147.124H306.647L307.062 145.311L307.589 143.132H308.795L307.346 148.421H305.948L305.269 146.091L304.874 144.652H304.844L304.459 146.091L303.79 148.421H302.412L300.953 143.132ZM309.771 148.421V143.132H311.068V144.014H311.118C311.226 143.73 311.395 143.494 311.625 143.305C311.861 143.109 312.185 143.011 312.597 143.011C313.144 143.011 313.563 143.19 313.854 143.548C314.144 143.906 314.289 144.416 314.289 145.078V148.421H312.993V145.209C312.993 144.831 312.925 144.547 312.79 144.358C312.655 144.169 312.432 144.075 312.121 144.075C311.986 144.075 311.854 144.095 311.726 144.135C311.605 144.169 311.493 144.223 311.392 144.298C311.297 144.365 311.22 144.453 311.159 144.561C311.098 144.662 311.068 144.784 311.068 144.926V148.421H309.771Z" fill="#9FA0A3"/>
<rect x="56.835" y="174.647" width="119.166" height="28.1493" rx="8.88193" fill="#C4FE61"/>
<path d="M96.6866 190.745H96.6505C96.5962 191.053 96.4242 191.312 96.1347 191.523C95.8511 191.728 95.4711 191.831 94.9945 191.831C94.6205 191.831 94.2737 191.761 93.9539 191.623C93.6402 191.484 93.3658 191.279 93.1305 191.007C92.9013 190.73 92.7203 190.389 92.5876 189.985C92.4549 189.581 92.3885 189.113 92.3885 188.582C92.3885 188.051 92.4549 187.584 92.5876 187.18C92.7263 186.769 92.9194 186.426 93.1667 186.148C93.414 185.871 93.7096 185.66 94.0535 185.515C94.3973 185.37 94.7804 185.298 95.2027 185.298C95.7697 185.298 96.2523 185.421 96.6505 185.669C97.0486 185.916 97.3623 186.272 97.5915 186.736L96.6233 187.306C96.5087 187.035 96.3368 186.809 96.1075 186.628C95.8843 186.447 95.5827 186.356 95.2027 186.356C94.7321 186.356 94.3551 186.501 94.0716 186.791C93.7941 187.074 93.6553 187.496 93.6553 188.057V189.071C93.6553 189.626 93.7971 190.048 94.0806 190.338C94.3641 190.627 94.7442 190.772 95.2208 190.772C95.4078 190.772 95.5827 190.751 95.7456 190.709C95.9085 190.66 96.0502 190.591 96.1709 190.501C96.2915 190.41 96.388 190.299 96.4604 190.166C96.5328 190.033 96.569 189.876 96.569 189.695V189.288H95.3293V188.284H97.7182V191.722H96.6866V190.745ZM100.939 191.831C100.589 191.831 100.275 191.773 99.9977 191.659C99.7262 191.538 99.494 191.372 99.3009 191.161C99.1139 190.944 98.9692 190.685 98.8666 190.383C98.7641 190.075 98.7128 189.731 98.7128 189.351C98.7128 188.977 98.761 188.64 98.8576 188.338C98.9601 188.036 99.1049 187.78 99.2919 187.569C99.4789 187.352 99.7081 187.186 99.9796 187.071C100.251 186.95 100.559 186.89 100.903 186.89C101.271 186.89 101.59 186.953 101.862 187.08C102.133 187.207 102.356 187.379 102.531 187.596C102.706 187.813 102.836 188.066 102.92 188.356C103.011 188.64 103.056 188.944 103.056 189.27V189.65H99.9163V189.768C99.9163 190.111 100.013 190.389 100.206 190.6C100.399 190.805 100.685 190.908 101.065 190.908C101.355 190.908 101.59 190.847 101.771 190.727C101.958 190.606 102.124 190.452 102.269 190.265L102.893 190.962C102.7 191.234 102.435 191.448 102.097 191.605C101.765 191.755 101.379 191.831 100.939 191.831ZM100.921 187.759C100.613 187.759 100.369 187.861 100.188 188.066C100.007 188.272 99.9163 188.537 99.9163 188.863V188.935H101.853V188.854C101.853 188.528 101.771 188.266 101.608 188.066C101.452 187.861 101.222 187.759 100.921 187.759ZM105.55 191.722C105.152 191.722 104.847 191.62 104.636 191.415C104.431 191.203 104.329 190.905 104.329 190.519V187.922H103.632V186.999H103.994C104.169 186.999 104.286 186.96 104.347 186.881C104.413 186.797 104.446 186.673 104.446 186.51V185.705H105.487V186.999H106.455V187.922H105.487V190.799H106.383V191.722H105.55ZM111.634 191.831C111.091 191.831 110.63 191.734 110.25 191.541C109.876 191.348 109.553 191.095 109.281 190.781L110.087 190.003C110.304 190.256 110.545 190.449 110.811 190.582C111.082 190.715 111.381 190.781 111.706 190.781C112.074 190.781 112.352 190.703 112.539 190.546C112.726 190.383 112.819 190.166 112.819 189.894C112.819 189.683 112.759 189.511 112.638 189.379C112.518 189.246 112.292 189.149 111.96 189.089L111.363 188.999C110.102 188.799 109.471 188.187 109.471 187.162C109.471 186.878 109.523 186.622 109.625 186.392C109.734 186.163 109.888 185.967 110.087 185.804C110.286 185.641 110.524 185.518 110.802 185.433C111.085 185.343 111.405 185.298 111.761 185.298C112.237 185.298 112.654 185.376 113.009 185.533C113.365 185.69 113.67 185.922 113.923 186.23L113.109 186.999C112.952 186.806 112.762 186.649 112.539 186.528C112.316 186.408 112.035 186.347 111.697 186.347C111.354 186.347 111.094 186.414 110.919 186.546C110.75 186.673 110.666 186.854 110.666 187.089C110.666 187.331 110.735 187.508 110.874 187.623C111.013 187.738 111.236 187.822 111.544 187.876L112.132 187.985C112.771 188.1 113.242 188.305 113.543 188.6C113.851 188.89 114.005 189.297 114.005 189.822C114.005 190.124 113.951 190.398 113.842 190.645C113.739 190.887 113.586 191.098 113.38 191.279C113.181 191.454 112.934 191.589 112.638 191.686C112.349 191.782 112.014 191.831 111.634 191.831ZM116.569 191.722C116.171 191.722 115.867 191.62 115.656 191.415C115.45 191.203 115.348 190.905 115.348 190.519V187.922H114.651V186.999H115.013C115.188 186.999 115.306 186.96 115.366 186.881C115.432 186.797 115.466 186.673 115.466 186.51V185.705H116.506V186.999H117.474V187.922H116.506V190.799H117.402V191.722H116.569ZM121.954 191.722C121.7 191.722 121.498 191.65 121.347 191.505C121.203 191.354 121.112 191.155 121.076 190.908H121.022C120.943 191.215 120.783 191.448 120.542 191.605C120.301 191.755 120.002 191.831 119.646 191.831C119.164 191.831 118.793 191.704 118.533 191.451C118.274 191.197 118.144 190.86 118.144 190.437C118.144 189.949 118.319 189.587 118.669 189.351C119.019 189.11 119.517 188.989 120.162 188.989H120.967V188.646C120.967 188.38 120.898 188.175 120.759 188.03C120.62 187.886 120.397 187.813 120.09 187.813C119.818 187.813 119.598 187.873 119.429 187.994C119.266 188.109 119.127 188.247 119.013 188.41L118.325 187.795C118.5 187.524 118.732 187.306 119.022 187.144C119.311 186.975 119.694 186.89 120.171 186.89C120.81 186.89 121.296 187.035 121.628 187.324C121.96 187.614 122.126 188.03 122.126 188.573V190.799H122.596V191.722H121.954ZM120.035 190.989C120.295 190.989 120.515 190.932 120.696 190.817C120.877 190.703 120.967 190.534 120.967 190.311V189.686H120.225C119.622 189.686 119.32 189.879 119.32 190.265V190.419C119.32 190.612 119.381 190.757 119.501 190.853C119.628 190.944 119.806 190.989 120.035 190.989ZM123.534 191.722V186.999H124.692V187.976H124.737C124.767 187.849 124.812 187.729 124.873 187.614C124.939 187.493 125.024 187.388 125.126 187.297C125.229 187.207 125.349 187.134 125.488 187.08C125.633 187.026 125.799 186.999 125.986 186.999H126.239V188.094H125.877C125.485 188.094 125.189 188.151 124.99 188.266C124.791 188.38 124.692 188.567 124.692 188.827V191.722H123.534ZM128.596 191.722C128.198 191.722 127.893 191.62 127.682 191.415C127.477 191.203 127.375 190.905 127.375 190.519V187.922H126.678V186.999H127.04C127.215 186.999 127.332 186.96 127.393 186.881C127.459 186.797 127.492 186.673 127.492 186.51V185.705H128.533V186.999H129.501V187.922H128.533V190.799H129.429V191.722H128.596ZM132.38 191.831C132.03 191.831 131.716 191.773 131.438 191.659C131.167 191.538 130.935 191.372 130.742 191.161C130.555 190.944 130.41 190.685 130.307 190.383C130.205 190.075 130.154 189.731 130.154 189.351C130.154 188.977 130.202 188.64 130.298 188.338C130.401 188.036 130.546 187.78 130.733 187.569C130.92 187.352 131.149 187.186 131.42 187.071C131.692 186.95 131.999 186.89 132.343 186.89C132.711 186.89 133.031 186.953 133.303 187.08C133.574 187.207 133.797 187.379 133.972 187.596C134.147 187.813 134.277 188.066 134.361 188.356C134.452 188.64 134.497 188.944 134.497 189.27V189.65H131.357V189.768C131.357 190.111 131.454 190.389 131.647 190.6C131.84 190.805 132.126 190.908 132.506 190.908C132.796 190.908 133.031 190.847 133.212 190.727C133.399 190.606 133.565 190.452 133.71 190.265L134.334 190.962C134.141 191.234 133.876 191.448 133.538 191.605C133.206 191.755 132.82 191.831 132.38 191.831ZM132.361 187.759C132.054 187.759 131.809 187.861 131.629 188.066C131.448 188.272 131.357 188.537 131.357 188.863V188.935H133.293V188.854C133.293 188.528 133.212 188.266 133.049 188.066C132.892 187.861 132.663 187.759 132.361 187.759ZM138.448 190.935H138.403C138.318 191.206 138.158 191.424 137.923 191.586C137.688 191.749 137.413 191.831 137.1 191.831C136.502 191.831 136.044 191.617 135.724 191.188C135.41 190.76 135.254 190.148 135.254 189.351C135.254 188.561 135.41 187.955 135.724 187.533C136.044 187.104 136.502 186.89 137.1 186.89C137.413 186.89 137.688 186.972 137.923 187.134C138.158 187.291 138.318 187.505 138.403 187.777H138.448V185.026H139.606V191.722H138.448V190.935ZM137.471 190.872C137.748 190.872 137.98 190.805 138.167 190.673C138.354 190.54 138.448 190.35 138.448 190.102V188.6C138.448 188.371 138.354 188.187 138.167 188.048C137.98 187.91 137.748 187.84 137.471 187.84C137.169 187.84 136.925 187.943 136.738 188.148C136.557 188.347 136.466 188.615 136.466 188.953V189.768C136.466 190.105 136.557 190.374 136.738 190.573C136.925 190.772 137.169 190.872 137.471 190.872Z" fill="#090910"/>
<rect x="219.798" y="174.647" width="119.166" height="28.1493" rx="8.88193" fill="#C4FE61"/>
<path d="M259.65 190.745H259.614C259.559 191.052 259.387 191.312 259.098 191.523C258.814 191.728 258.434 191.831 257.958 191.831C257.584 191.831 257.237 191.761 256.917 191.622C256.603 191.484 256.329 191.279 256.094 191.007C255.864 190.73 255.683 190.389 255.551 189.985C255.418 189.58 255.352 189.113 255.352 188.582C255.352 188.051 255.418 187.584 255.551 187.179C255.689 186.769 255.882 186.425 256.13 186.148C256.377 185.87 256.673 185.659 257.017 185.514C257.36 185.37 257.744 185.297 258.166 185.297C258.733 185.297 259.215 185.421 259.614 185.668C260.012 185.916 260.325 186.272 260.555 186.736L259.586 187.306C259.472 187.035 259.3 186.808 259.071 186.627C258.847 186.447 258.546 186.356 258.166 186.356C257.695 186.356 257.318 186.501 257.035 186.79C256.757 187.074 256.618 187.496 256.618 188.057V189.071C256.618 189.626 256.76 190.048 257.044 190.337C257.327 190.627 257.707 190.772 258.184 190.772C258.371 190.772 258.546 190.751 258.709 190.708C258.872 190.66 259.013 190.591 259.134 190.5C259.255 190.41 259.351 190.298 259.424 190.166C259.496 190.033 259.532 189.876 259.532 189.695V189.288H258.292V188.283H260.681V191.722H259.65V190.745ZM263.902 191.831C263.552 191.831 263.238 191.773 262.961 191.659C262.689 191.538 262.457 191.372 262.264 191.161C262.077 190.944 261.932 190.684 261.83 190.383C261.727 190.075 261.676 189.731 261.676 189.351C261.676 188.977 261.724 188.639 261.821 188.338C261.923 188.036 262.068 187.78 262.255 187.569C262.442 187.351 262.671 187.185 262.943 187.071C263.214 186.95 263.522 186.89 263.866 186.89C264.234 186.89 264.553 186.953 264.825 187.08C265.096 187.207 265.32 187.379 265.494 187.596C265.669 187.813 265.799 188.066 265.884 188.356C265.974 188.639 266.019 188.944 266.019 189.27V189.65H262.879V189.767C262.879 190.111 262.976 190.389 263.169 190.6C263.362 190.805 263.649 190.908 264.029 190.908C264.318 190.908 264.553 190.847 264.734 190.727C264.921 190.606 265.087 190.452 265.232 190.265L265.856 190.962C265.663 191.233 265.398 191.447 265.06 191.604C264.728 191.755 264.342 191.831 263.902 191.831ZM263.884 187.759C263.576 187.759 263.332 187.861 263.151 188.066C262.97 188.271 262.879 188.537 262.879 188.863V188.935H264.816V188.853C264.816 188.528 264.734 188.265 264.572 188.066C264.415 187.861 264.185 187.759 263.884 187.759ZM268.513 191.722C268.115 191.722 267.811 191.619 267.599 191.414C267.394 191.203 267.292 190.905 267.292 190.518V187.921H266.595V186.998H266.957C267.132 186.998 267.249 186.959 267.31 186.881C267.376 186.796 267.409 186.673 267.409 186.51V185.705H268.45V186.998H269.418V187.921H268.45V190.799H269.346V191.722H268.513ZM274.597 191.831C274.054 191.831 273.593 191.734 273.213 191.541C272.839 191.348 272.516 191.095 272.245 190.781L273.05 190.003C273.267 190.256 273.508 190.449 273.774 190.582C274.045 190.714 274.344 190.781 274.67 190.781C275.038 190.781 275.315 190.702 275.502 190.546C275.689 190.383 275.783 190.166 275.783 189.894C275.783 189.683 275.722 189.511 275.602 189.378C275.481 189.246 275.255 189.149 274.923 189.089L274.326 188.998C273.065 188.799 272.435 188.187 272.435 187.161C272.435 186.878 272.486 186.621 272.588 186.392C272.697 186.163 272.851 185.967 273.05 185.804C273.249 185.641 273.487 185.518 273.765 185.433C274.048 185.343 274.368 185.297 274.724 185.297C275.2 185.297 275.617 185.376 275.973 185.533C276.329 185.689 276.633 185.922 276.887 186.229L276.072 186.998C275.915 186.805 275.725 186.649 275.502 186.528C275.279 186.407 274.998 186.347 274.661 186.347C274.317 186.347 274.057 186.413 273.882 186.546C273.713 186.673 273.629 186.854 273.629 187.089C273.629 187.33 273.698 187.508 273.837 187.623C273.976 187.737 274.199 187.822 274.507 187.876L275.095 187.985C275.734 188.099 276.205 188.305 276.506 188.6C276.814 188.89 276.968 189.297 276.968 189.822C276.968 190.123 276.914 190.398 276.805 190.645C276.703 190.886 276.549 191.098 276.344 191.279C276.145 191.453 275.897 191.589 275.602 191.686C275.312 191.782 274.977 191.831 274.597 191.831ZM279.533 191.722C279.134 191.722 278.83 191.619 278.619 191.414C278.414 191.203 278.311 190.905 278.311 190.518V187.921H277.614V186.998H277.976C278.151 186.998 278.269 186.959 278.329 186.881C278.395 186.796 278.429 186.673 278.429 186.51V185.705H279.469V186.998H280.437V187.921H279.469V190.799H280.365V191.722H279.533ZM284.917 191.722C284.663 191.722 284.461 191.65 284.311 191.505C284.166 191.354 284.075 191.155 284.039 190.908H283.985C283.906 191.215 283.746 191.447 283.505 191.604C283.264 191.755 282.965 191.831 282.609 191.831C282.127 191.831 281.756 191.704 281.496 191.45C281.237 191.197 281.107 190.859 281.107 190.437C281.107 189.948 281.282 189.586 281.632 189.351C281.982 189.11 282.48 188.989 283.125 188.989H283.93V188.645C283.93 188.38 283.861 188.175 283.722 188.03C283.584 187.885 283.36 187.813 283.053 187.813C282.781 187.813 282.561 187.873 282.392 187.994C282.229 188.108 282.091 188.247 281.976 188.41L281.288 187.795C281.463 187.523 281.695 187.306 281.985 187.143C282.275 186.974 282.658 186.89 283.134 186.89C283.774 186.89 284.259 187.035 284.591 187.324C284.923 187.614 285.089 188.03 285.089 188.573V190.799H285.559V191.722H284.917ZM282.998 190.989C283.258 190.989 283.478 190.932 283.659 190.817C283.84 190.702 283.93 190.534 283.93 190.31V189.686H283.188C282.585 189.686 282.284 189.879 282.284 190.265V190.419C282.284 190.612 282.344 190.757 282.465 190.853C282.591 190.944 282.769 190.989 282.998 190.989ZM286.497 191.722V186.998H287.655V187.976H287.7C287.73 187.849 287.776 187.728 287.836 187.614C287.902 187.493 287.987 187.388 288.089 187.297C288.192 187.207 288.312 187.134 288.451 187.08C288.596 187.026 288.762 186.998 288.949 186.998H289.202V188.093H288.84C288.448 188.093 288.153 188.151 287.953 188.265C287.754 188.38 287.655 188.567 287.655 188.826V191.722H286.497ZM291.559 191.722C291.161 191.722 290.856 191.619 290.645 191.414C290.44 191.203 290.338 190.905 290.338 190.518V187.921H289.641V186.998H290.003C290.178 186.998 290.295 186.959 290.356 186.881C290.422 186.796 290.455 186.673 290.455 186.51V185.705H291.496V186.998H292.464V187.921H291.496V190.799H292.392V191.722H291.559ZM295.343 191.831C294.993 191.831 294.679 191.773 294.402 191.659C294.13 191.538 293.898 191.372 293.705 191.161C293.518 190.944 293.373 190.684 293.271 190.383C293.168 190.075 293.117 189.731 293.117 189.351C293.117 188.977 293.165 188.639 293.261 188.338C293.364 188.036 293.509 187.78 293.696 187.569C293.883 187.351 294.112 187.185 294.384 187.071C294.655 186.95 294.963 186.89 295.306 186.89C295.674 186.89 295.994 186.953 296.266 187.08C296.537 187.207 296.76 187.379 296.935 187.596C297.11 187.813 297.24 188.066 297.324 188.356C297.415 188.639 297.46 188.944 297.46 189.27V189.65H294.32V189.767C294.32 190.111 294.417 190.389 294.61 190.6C294.803 190.805 295.089 190.908 295.469 190.908C295.759 190.908 295.994 190.847 296.175 190.727C296.362 190.606 296.528 190.452 296.673 190.265L297.297 190.962C297.104 191.233 296.839 191.447 296.501 191.604C296.169 191.755 295.783 191.831 295.343 191.831ZM295.325 187.759C295.017 187.759 294.773 187.861 294.592 188.066C294.411 188.271 294.32 188.537 294.32 188.863V188.935H296.257V188.853C296.257 188.528 296.175 188.265 296.012 188.066C295.855 187.861 295.626 187.759 295.325 187.759ZM301.411 190.935H301.366C301.281 191.206 301.121 191.423 300.886 191.586C300.651 191.749 300.376 191.831 300.063 191.831C299.465 191.831 299.007 191.616 298.687 191.188C298.374 190.76 298.217 190.147 298.217 189.351C298.217 188.561 298.374 187.955 298.687 187.532C299.007 187.104 299.465 186.89 300.063 186.89C300.376 186.89 300.651 186.971 300.886 187.134C301.121 187.291 301.281 187.505 301.366 187.777H301.411V185.026H302.569V191.722H301.411V190.935ZM300.434 190.871C300.711 190.871 300.943 190.805 301.13 190.672C301.317 190.54 301.411 190.35 301.411 190.102V188.6C301.411 188.371 301.317 188.187 301.13 188.048C300.943 187.909 300.711 187.84 300.434 187.84C300.132 187.84 299.888 187.943 299.701 188.148C299.52 188.347 299.429 188.615 299.429 188.953V189.767C299.429 190.105 299.52 190.374 299.701 190.573C299.888 190.772 300.132 190.871 300.434 190.871Z" fill="#090910"/>
</g>
<g filter="url(#filter2_b_25_221)">
<rect x="183.919" y="214.101" width="249.713" height="67.657" rx="9.01493" fill="#D9FCD3" fill-opacity="0.1"/>
</g>
<rect x="186.507" y="210.54" width="244.539" height="67.7527" rx="9.01493" fill="#F4F6FE"/>
<g filter="url(#filter3_bd_25_221)">
<circle cx="219.208" cy="245.829" r="18.7554" transform="rotate(-0.944546 219.208 245.829)" fill="#0C8CE9" fill-opacity="0.5" shape-rendering="crispEdges"/>
</g>
<path d="M228.252 236.977L210.178 236.977C209.308 236.977 208.616 237.691 208.616 238.539L208.616 253.221C208.616 254.091 209.33 254.783 210.178 254.783L228.23 254.783C229.1 254.783 229.791 254.091 229.791 253.221L229.791 238.539C229.814 237.669 229.1 236.977 228.252 236.977ZM215.31 238.583C215.69 238.583 215.98 238.896 215.98 239.253C215.98 239.632 215.667 239.922 215.31 239.922C214.931 239.922 214.641 239.61 214.641 239.253C214.641 238.873 214.931 238.583 215.31 238.583ZM213.258 238.583C213.637 238.583 213.927 238.896 213.927 239.253C213.927 239.632 213.615 239.922 213.258 239.922C212.878 239.922 212.588 239.61 212.588 239.253C212.588 238.873 212.901 238.583 213.258 238.583ZM211.205 238.583C211.584 238.583 211.874 238.896 211.874 239.253C211.874 239.632 211.562 239.922 211.205 239.922C210.825 239.922 210.535 239.61 210.535 239.253C210.535 238.873 210.848 238.583 211.205 238.583ZM227.85 252.707C227.85 252.774 227.806 252.819 227.739 252.819L210.692 252.819C210.625 252.819 210.58 252.774 210.58 252.707L210.58 241.596L227.828 241.596L227.828 252.707L227.85 252.707Z" fill="#F1FDEF"/>
<path d="M214.306 247.865L214.753 247.865C214.909 247.865 215.065 247.932 215.177 248.044C215.288 248.156 215.333 248.312 215.31 248.49C215.288 248.78 215.02 249.003 214.708 249.003L214.105 249.003C213.927 249.003 213.793 248.892 213.748 248.713C213.726 248.602 213.637 248.535 213.503 248.535L212.811 248.535C212.744 248.535 212.677 248.557 212.633 248.624C212.588 248.669 212.566 248.736 212.566 248.803C212.633 249.517 213.191 250.074 213.882 250.164L213.882 250.744C213.882 250.878 213.994 250.989 214.128 250.989L214.797 250.989C214.931 250.989 215.043 250.878 215.043 250.744L215.043 250.119C215.801 249.963 216.381 249.338 216.448 248.602C216.493 248.111 216.337 247.642 216.002 247.263C215.667 246.906 215.199 246.683 214.708 246.683L214.195 246.683C214.039 246.683 213.882 246.616 213.771 246.504C213.659 246.393 213.615 246.237 213.637 246.058C213.659 245.768 213.927 245.545 214.239 245.545L214.842 245.545C215.02 245.545 215.154 245.656 215.199 245.835C215.221 245.947 215.31 246.014 215.444 246.014L216.136 246.014C216.203 246.014 216.27 245.991 216.314 245.924C216.359 245.88 216.381 245.813 216.381 245.746C216.314 245.032 215.757 244.474 215.065 244.385L215.065 243.805C215.065 243.671 214.953 243.559 214.82 243.559L214.15 243.559C214.016 243.559 213.905 243.671 213.905 243.805L213.905 244.407C213.034 244.563 212.41 245.389 212.499 246.281C212.588 247.174 213.391 247.865 214.306 247.865Z" fill="#D9FCD3"/>
<path d="M217.943 250.967C217.965 250.967 218.01 250.967 218.032 250.967C218.189 250.945 218.345 250.855 218.434 250.722L220.464 247.932L221.826 248.914C222.116 249.115 222.495 249.048 222.696 248.78L224.86 245.835L225.284 246.147C225.396 246.237 225.552 246.237 225.686 246.17C225.82 246.103 225.887 245.969 225.887 245.813L225.842 243.894C225.842 243.782 225.775 243.671 225.686 243.581C225.596 243.514 225.463 243.492 225.351 243.514L223.566 244.095C223.432 244.139 223.321 244.251 223.298 244.407C223.276 244.563 223.321 244.697 223.454 244.786L223.878 245.099L222.093 247.553L220.732 246.549C220.442 246.348 220.063 246.415 219.862 246.683L217.452 249.963C217.251 250.231 217.318 250.632 217.586 250.833C217.698 250.922 217.832 250.967 217.943 250.967Z" fill="#E3FCDE"/>
<path d="M304.851 247.404V243.272H301.021V241.043H304.851V236.889H307.274V241.043H311.104V243.272H307.274V247.404H304.851Z" fill="#9FA0A3"/>
<path d="M314.514 248.767V246.452H318.668V235.721H318.473L315.184 239.615L313.41 238.122L317.153 233.665H321.459V246.452H324.921V248.767H314.514ZM337.439 239.334C337.439 240.416 337.273 241.44 336.942 242.406C336.624 243.358 336.206 244.238 335.687 245.046C335.167 245.839 334.583 246.553 333.934 247.188C333.3 247.808 332.665 248.334 332.03 248.767H328.179C329.059 248.132 329.852 247.519 330.559 246.928C331.266 246.337 331.879 245.738 332.398 245.132C332.932 244.526 333.364 243.899 333.696 243.25C334.042 242.586 334.302 241.872 334.475 241.108L334.302 241.065C334.158 241.353 333.985 241.634 333.783 241.909C333.595 242.183 333.364 242.421 333.09 242.623C332.816 242.824 332.499 242.99 332.138 243.12C331.778 243.236 331.36 243.293 330.884 243.293C330.249 243.293 329.665 243.185 329.131 242.969C328.597 242.752 328.129 242.442 327.725 242.038C327.335 241.62 327.025 241.13 326.794 240.567C326.578 239.99 326.47 239.341 326.47 238.62C326.47 237.855 326.6 237.156 326.859 236.521C327.119 235.887 327.487 235.338 327.963 234.877C328.439 234.415 329.008 234.055 329.672 233.795C330.35 233.535 331.107 233.406 331.944 233.406C332.809 233.406 333.581 233.55 334.259 233.838C334.937 234.112 335.514 234.509 335.99 235.028C336.466 235.533 336.826 236.153 337.071 236.889C337.317 237.61 337.439 238.425 337.439 239.334ZM331.944 241.086C332.751 241.086 333.379 240.87 333.826 240.437C334.273 239.99 334.497 239.356 334.497 238.533V238.209C334.497 237.387 334.273 236.759 333.826 236.326C333.379 235.879 332.751 235.656 331.944 235.656C331.15 235.656 330.523 235.879 330.061 236.326C329.614 236.759 329.391 237.387 329.391 238.209V238.533C329.391 239.356 329.614 239.99 330.061 240.437C330.523 240.87 331.15 241.086 331.944 241.086ZM341.715 249.005C341.123 249.005 340.683 248.861 340.395 248.572C340.121 248.269 339.984 247.887 339.984 247.426V247.036C339.984 246.575 340.121 246.192 340.395 245.89C340.683 245.587 341.123 245.435 341.715 245.435C342.32 245.435 342.76 245.587 343.034 245.89C343.308 246.192 343.446 246.575 343.446 247.036V247.426C343.446 247.887 343.308 248.269 343.034 248.572C342.76 248.861 342.32 249.005 341.715 249.005ZM351.426 249.027C350.46 249.027 349.623 248.854 348.916 248.507C348.209 248.147 347.625 247.635 347.164 246.971C346.702 246.308 346.356 245.493 346.125 244.526C345.909 243.56 345.801 242.457 345.801 241.216C345.801 239.99 345.909 238.894 346.125 237.928C346.356 236.947 346.702 236.125 347.164 235.461C347.625 234.798 348.209 234.293 348.916 233.947C349.623 233.586 350.46 233.406 351.426 233.406C353.344 233.406 354.758 234.091 355.667 235.461C356.59 236.831 357.051 238.75 357.051 241.216C357.051 243.683 356.59 245.601 355.667 246.971C354.758 248.342 353.344 249.027 351.426 249.027ZM351.426 246.625C352.392 246.625 353.063 246.265 353.438 245.543C353.827 244.808 354.022 243.82 354.022 242.579V239.853C354.022 238.613 353.827 237.632 353.438 236.911C353.063 236.175 352.392 235.807 351.426 235.807C350.46 235.807 349.782 236.175 349.392 236.911C349.017 237.632 348.83 238.613 348.83 239.853V242.579C348.83 243.82 349.017 244.808 349.392 245.543C349.782 246.265 350.46 246.625 351.426 246.625ZM364.399 249.027C363.519 249.027 362.733 248.919 362.041 248.702C361.363 248.471 360.786 248.161 360.31 247.772C359.848 247.382 359.495 246.921 359.25 246.387C359.004 245.853 358.882 245.269 358.882 244.635C358.882 243.654 359.149 242.861 359.682 242.255C360.23 241.634 360.959 241.202 361.868 240.957V240.783C361.118 240.509 360.505 240.084 360.029 239.507C359.567 238.93 359.336 238.202 359.336 237.322C359.336 236.745 359.444 236.218 359.661 235.742C359.891 235.266 360.223 234.855 360.656 234.509C361.089 234.163 361.615 233.896 362.235 233.709C362.87 233.507 363.591 233.406 364.399 233.406C365.207 233.406 365.921 233.507 366.541 233.709C367.176 233.896 367.709 234.163 368.142 234.509C368.575 234.855 368.899 235.266 369.116 235.742C369.346 236.218 369.462 236.745 369.462 237.322C369.462 238.202 369.224 238.93 368.748 239.507C368.286 240.084 367.68 240.509 366.93 240.783V240.957C367.839 241.202 368.56 241.634 369.094 242.255C369.642 242.861 369.916 243.654 369.916 244.635C369.916 245.269 369.793 245.853 369.548 246.387C369.303 246.921 368.942 247.382 368.466 247.772C368.005 248.161 367.428 248.471 366.736 248.702C366.058 248.919 365.279 249.027 364.399 249.027ZM364.399 246.798C365.221 246.798 365.849 246.611 366.281 246.236C366.728 245.861 366.952 245.334 366.952 244.656V244.202C366.952 243.524 366.728 242.998 366.281 242.623C365.849 242.247 365.221 242.06 364.399 242.06C363.577 242.06 362.942 242.247 362.495 242.623C362.062 242.998 361.846 243.524 361.846 244.202V244.656C361.846 245.334 362.062 245.861 362.495 246.236C362.942 246.611 363.577 246.798 364.399 246.798ZM364.399 239.94C365.163 239.94 365.748 239.767 366.151 239.42C366.555 239.074 366.757 238.584 366.757 237.949V237.603C366.757 236.983 366.555 236.5 366.151 236.153C365.748 235.807 365.163 235.634 364.399 235.634C363.634 235.634 363.05 235.807 362.646 236.153C362.243 236.5 362.041 236.983 362.041 237.603V237.949C362.041 238.584 362.243 239.074 362.646 239.42C363.05 239.767 363.634 239.94 364.399 239.94ZM374.776 248.767L385.247 233.665H387.757L377.285 248.767H374.776ZM375.814 241.973C374.588 241.973 373.651 241.613 373.002 240.892C372.367 240.156 372.05 239.089 372.05 237.69C372.05 236.29 372.367 235.23 373.002 234.509C373.651 233.773 374.588 233.406 375.814 233.406C377.04 233.406 377.971 233.773 378.605 234.509C379.24 235.23 379.557 236.29 379.557 237.69C379.557 239.089 379.24 240.156 378.605 240.892C377.971 241.613 377.04 241.973 375.814 241.973ZM375.814 240.329C376.708 240.329 377.156 239.644 377.156 238.274V237.105C377.156 235.735 376.708 235.05 375.814 235.05C374.92 235.05 374.473 235.735 374.473 237.105V238.274C374.473 239.644 374.92 240.329 375.814 240.329ZM386.719 249.027C385.507 249.027 384.577 248.666 383.928 247.945C383.293 247.209 382.976 246.142 382.976 244.743C382.976 243.344 383.293 242.284 383.928 241.562C384.577 240.827 385.507 240.459 386.719 240.459C387.945 240.459 388.875 240.827 389.51 241.562C390.159 242.284 390.483 243.344 390.483 244.743C390.483 246.142 390.159 247.209 389.51 247.945C388.875 248.666 387.945 249.027 386.719 249.027ZM386.719 247.382C387.613 247.382 388.06 246.697 388.06 245.327V244.159C388.06 242.788 387.613 242.103 386.719 242.103C385.824 242.103 385.377 242.788 385.377 244.159V245.327C385.377 246.697 385.824 247.382 386.719 247.382Z" fill="black"/>
<path d="M400.164 248.633C400.211 248.633 400.305 248.633 400.352 248.633C400.681 248.586 401.01 248.397 401.199 248.115L405.48 242.234L408.35 244.304C408.961 244.728 409.761 244.587 410.184 244.022L414.748 237.812L415.642 238.471C415.877 238.659 416.206 238.659 416.489 238.518C416.771 238.376 416.912 238.094 416.912 237.765L416.818 233.719C416.818 233.484 416.677 233.248 416.489 233.06C416.301 232.919 416.018 232.872 415.783 232.919L412.019 234.142C411.737 234.236 411.502 234.472 411.455 234.801C411.408 235.13 411.502 235.412 411.784 235.601L412.678 236.259L408.914 241.434L406.044 239.317C405.433 238.894 404.633 239.035 404.21 239.6L399.129 246.516C398.705 247.08 398.846 247.927 399.411 248.35C399.646 248.539 399.928 248.633 400.164 248.633Z" fill="#22A347"/>
<defs>
<filter id="filter0_b_25_221" x="-38.7397" y="-38.7397" width="538.142" height="379.479" filterUnits="userSpaceOnUse" color-interpolation-filters="sRGB">
<feFlood flood-opacity="0" result="BackgroundImageFix"/>
<feGaussianBlur in="BackgroundImageFix" stdDeviation="19.3699"/>
<feComposite in2="SourceAlpha" operator="in" result="effect1_backgroundBlur_25_221"/>
<feBlend mode="normal" in="SourceGraphic" in2="effect1_backgroundBlur_25_221" result="shape"/>
</filter>
<filter id="filter1_d_25_221" x="25.8973" y="19.4526" width="347.596" height="232.205" filterUnits="userSpaceOnUse" color-interpolation-filters="sRGB">
<feFlood flood-opacity="0" result="BackgroundImageFix"/>
<feColorMatrix in="SourceAlpha" type="matrix" values="0 0 0 0 0 0 0 0 0 0 0 0 0 0 0 0 0 0 127 0" result="hardAlpha"/>
<feOffset dy="0.289527"/>
<feGaussianBlur stdDeviation="0.581159"/>
<feComposite in2="hardAlpha" operator="out"/>
<feColorMatrix type="matrix" values="0 0 0 0 0.85098 0 0 0 0 0.988235 0 0 0 0 0.827451 0 0 0 0.1 0"/>
<feBlend mode="normal" in2="BackgroundImageFix" result="effect1_dropShadow_25_221"/>
<feBlend mode="normal" in="SourceGraphic" in2="effect1_dropShadow_25_221" result="shape"/>
</filter>
<filter id="filter2_b_25_221" x="159.823" y="190.005" width="297.906" height="115.85" filterUnits="userSpaceOnUse" color-interpolation-filters="sRGB">
<feFlood flood-opacity="0" result="BackgroundImageFix"/>
<feGaussianBlur in="BackgroundImageFix" stdDeviation="12.0482"/>
<feComposite in2="SourceAlpha" operator="in" result="effect1_backgroundBlur_25_221"/>
<feBlend mode="normal" in="SourceGraphic" in2="effect1_backgroundBlur_25_221" result="shape"/>
</filter>
<filter id="filter3_bd_25_221" x="172.226" y="198.847" width="93.965" height="93.965" filterUnits="userSpaceOnUse" color-interpolation-filters="sRGB">
<feFlood flood-opacity="0" result="BackgroundImageFix"/>
<feGaussianBlur in="BackgroundImageFix" stdDeviation="14.1135"/>
<feComposite in2="SourceAlpha" operator="in" result="effect1_backgroundBlur_25_221"/>
<feColorMatrix in="SourceAlpha" type="matrix" values="0 0 0 0 0 0 0 0 0 0 0 0 0 0 0 0 0 0 127 0" result="hardAlpha"/>
<feOffset dy="1.25453"/>
<feGaussianBlur stdDeviation="1.25453"/>
<feComposite in2="hardAlpha" operator="out"/>
<feColorMatrix type="matrix" values="0 0 0 0 0 0 0 0 0 0 0 0 0 0 0 0 0 0 0.1 0"/>
<feBlend mode="normal" in2="effect1_backgroundBlur_25_221" result="effect2_dropShadow_25_221"/>
<feBlend mode="normal" in="SourceGraphic" in2="effect2_dropShadow_25_221" result="shape"/>
</filter>
<linearGradient id="paint0_linear_25_221" x1="0" y1="0" x2="460.663" y2="0" gradientUnits="userSpaceOnUse">
<stop stop-color="#C4FE61"/>
<stop offset="0.2" stop-color="#C4FE61"/>
<stop offset="0.4" stop-color="#C4FE61"/>
<stop offset="0.6" stop-color="#C4FE61"/>
<stop offset="0.8" stop-color="#C4FE61"/>
<stop offset="1" stop-color="#C4FE61"/>
</linearGradient>
</defs>
</svg>
